<svg xmlns="http://www.w3.org/2000/svg" width="1440" height="920" viewBox="0 0 1440 920" role="img" aria-label="Juanda Airport visitor forecasting dashboard">
<defs>
<filter id="shadow" x="-10%" y="-10%" width="120%" height="130%"><feDropShadow dx="0" dy="8" stdDeviation="10" flood-color="#172033" flood-opacity="0.10"/></filter>
<linearGradient id="lineFill" x1="0" y1="0" x2="0" y2="1"><stop offset="0%" stop-color="#1f7a8c" stop-opacity="0.20"/><stop offset="100%" stop-color="#1f7a8c" stop-opacity="0.02"/></linearGradient>
</defs>
<rect x="0.0" y="0.0" width="1440.0" height="920.0" rx="0" fill="#fbfcff" stroke="none"/>
<text x="64.0" y="76.0" font-size="34" font-family="Inter, Segoe UI, Arial, sans-serif" font-weight="850" text-anchor="start" fill="#172033" >Juanda Airport Visitor Forecasting</text>
<text x="64.0" y="112.0" font-size="18" font-family="Inter, Segoe UI, Arial, sans-serif" font-weight="500" text-anchor="start" fill="#5d667a" >Time series prediction untuk kunjungan domestik + internasional, 2014-2023</text>
<rect x="64.0" y="150.0" width="300.0" height="104.0" rx="8" fill="#ffffff" stroke="#e5e9f2"/>
<rect x="64.0" y="150.0" width="7.0" height="104.0" rx="8" fill="#3366cc" stroke="none"/>
<text x="86.0" y="184.0" font-size="13" font-family="Inter, Segoe UI, Arial, sans-serif" font-weight="700" text-anchor="start" fill="#5d667a" >PERIODE DATA</text>
<text x="86.0" y="222.0" font-size="28" font-family="Inter, Segoe UI, Arial, sans-serif" font-weight="800" text-anchor="start" fill="#172033" >2014-2023</text>
<rect x="399.0" y="150.0" width="300.0" height="104.0" rx="8" fill="#ffffff" stroke="#e5e9f2"/>
<rect x="399.0" y="150.0" width="7.0" height="104.0" rx="8" fill="#2e8b57" stroke="none"/>
<text x="421.0" y="184.0" font-size="13" font-family="Inter, Segoe UI, Arial, sans-serif" font-weight="700" text-anchor="start" fill="#5d667a" >OBSERVASI</text>
<text x="421.0" y="222.0" font-size="28" font-family="Inter, Segoe UI, Arial, sans-serif" font-weight="800" text-anchor="start" fill="#172033" >120 bulan</text>
<rect x="734.0" y="150.0" width="300.0" height="104.0" rx="8" fill="#ffffff" stroke="#e5e9f2"/>
<rect x="734.0" y="150.0" width="7.0" height="104.0" rx="8" fill="#f28e2b" stroke="none"/>
<text x="756.0" y="184.0" font-size="13" font-family="Inter, Segoe UI, Arial, sans-serif" font-weight="700" text-anchor="start" fill="#5d667a" >BEST R2</text>
<text x="756.0" y="222.0" font-size="28" font-family="Inter, Segoe UI, Arial, sans-serif" font-weight="800" text-anchor="start" fill="#172033" >0.869</text>
<rect x="1069.0" y="150.0" width="300.0" height="104.0" rx="8" fill="#ffffff" stroke="#e5e9f2"/>
<rect x="1069.0" y="150.0" width="7.0" height="104.0" rx="8" fill="#e15759" stroke="none"/>
<text x="1091.0" y="184.0" font-size="13" font-family="Inter, Segoe UI, Arial, sans-serif" font-weight="700" text-anchor="start" fill="#5d667a" >BEST MAE</text>
<text x="1091.0" y="222.0" font-size="28" font-family="Inter, Segoe UI, Arial, sans-serif" font-weight="800" text-anchor="start" fill="#172033" >48.156</text>
<rect x="54.0" y="286.0" width="1332.0" height="508.0" rx="8" fill="#ffffff" stroke="#e5e9f2"/>
<text x="86.0" y="340.0" font-size="23" font-family="Inter, Segoe UI, Arial, sans-serif" font-weight="800" text-anchor="start" fill="#172033" >Historical Monthly Visitors</text>
<text x="86.0" y="369.0" font-size="15" font-family="Inter, Segoe UI, Arial, sans-serif" font-weight="500" text-anchor="start" fill="#5d667a" >Outlier rendah diperlakukan sesuai notebook sebelum pemodelan.</text>
<rect x="848.4" y="380.0" width="243.5" height="354.0" rx="0" fill="#fff4d6" stroke="none" opacity="0.65"/>
<text x="970.1" y="406.0" font-size="13" font-family="Inter, Segoe UI, Arial, sans-serif" font-weight="700" text-anchor="middle" fill="#966600" >pandemic dip</text>
<line x1="86.0" y1="734.0" x2="1346.0" y2="734.0" stroke="#e7ebf3" stroke-width="1"/>
<text x="70.0" y="739.0" font-size="13" font-family="Inter, Segoe UI, Arial, sans-serif" font-weight="500" text-anchor="end" fill="#5d667a" >0k</text>
<line x1="86.0" y1="663.2" x2="1346.0" y2="663.2" stroke="#e7ebf3" stroke-width="1"/>
<text x="70.0" y="668.2" font-size="13" font-family="Inter, Segoe UI, Arial, sans-serif" font-weight="500" text-anchor="end" fill="#5d667a" >200k</text>
<line x1="86.0" y1="592.4" x2="1346.0" y2="592.4" stroke="#e7ebf3" stroke-width="1"/>
<text x="70.0" y="597.4" font-size="13" font-family="Inter, Segoe UI, Arial, sans-serif" font-weight="500" text-anchor="end" fill="#5d667a" >400k</text>
<line x1="86.0" y1="521.6" x2="1346.0" y2="521.6" stroke="#e7ebf3" stroke-width="1"/>
<text x="70.0" y="526.6" font-size="13" font-family="Inter, Segoe UI, Arial, sans-serif" font-weight="500" text-anchor="end" fill="#5d667a" >600k</text>
<line x1="86.0" y1="450.8" x2="1346.0" y2="450.8" stroke="#e7ebf3" stroke-width="1"/>
<text x="70.0" y="455.8" font-size="13" font-family="Inter, Segoe UI, Arial, sans-serif" font-weight="500" text-anchor="end" fill="#5d667a" >800k</text>
<line x1="86.0" y1="380.0" x2="1346.0" y2="380.0" stroke="#e7ebf3" stroke-width="1"/>
<text x="70.0" y="385.0" font-size="13" font-family="Inter, Segoe UI, Arial, sans-serif" font-weight="500" text-anchor="end" fill="#5d667a" >1000k</text>
<line x1="86.0" y1="380.0" x2="86.0" y2="734.0" stroke="#dbe1ec" stroke-width="1" stroke-dasharray="4 8"/>
<text x="86.0" y="764.0" font-size="13" font-family="Inter, Segoe UI, Arial, sans-serif" font-weight="500" text-anchor="middle" fill="#5d667a" >2014</text>
<line x1="213.1" y1="380.0" x2="213.1" y2="734.0" stroke="#dbe1ec" stroke-width="1" stroke-dasharray="4 8"/>
<text x="213.1" y="764.0" font-size="13" font-family="Inter, Segoe UI, Arial, sans-serif" font-weight="500" text-anchor="middle" fill="#5d667a" >2015</text>
<line x1="340.1" y1="380.0" x2="340.1" y2="734.0" stroke="#dbe1ec" stroke-width="1" stroke-dasharray="4 8"/>
<text x="340.1" y="764.0" font-size="13" font-family="Inter, Segoe UI, Arial, sans-serif" font-weight="500" text-anchor="middle" fill="#5d667a" >2016</text>
<line x1="467.2" y1="380.0" x2="467.2" y2="734.0" stroke="#dbe1ec" stroke-width="1" stroke-dasharray="4 8"/>
<text x="467.2" y="764.0" font-size="13" font-family="Inter, Segoe UI, Arial, sans-serif" font-weight="500" text-anchor="middle" fill="#5d667a" >2017</text>
<line x1="594.2" y1="380.0" x2="594.2" y2="734.0" stroke="#dbe1ec" stroke-width="1" stroke-dasharray="4 8"/>
<text x="594.2" y="764.0" font-size="13" font-family="Inter, Segoe UI, Arial, sans-serif" font-weight="500" text-anchor="middle" fill="#5d667a" >2018</text>
<line x1="721.3" y1="380.0" x2="721.3" y2="734.0" stroke="#dbe1ec" stroke-width="1" stroke-dasharray="4 8"/>
<text x="721.3" y="764.0" font-size="13" font-family="Inter, Segoe UI, Arial, sans-serif" font-weight="500" text-anchor="middle" fill="#5d667a" >2019</text>
<line x1="848.4" y1="380.0" x2="848.4" y2="734.0" stroke="#dbe1ec" stroke-width="1" stroke-dasharray="4 8"/>
<text x="848.4" y="764.0" font-size="13" font-family="Inter, Segoe UI, Arial, sans-serif" font-weight="500" text-anchor="middle" fill="#5d667a" >2020</text>
<line x1="975.4" y1="380.0" x2="975.4" y2="734.0" stroke="#dbe1ec" stroke-width="1" stroke-dasharray="4 8"/>
<text x="975.4" y="764.0" font-size="13" font-family="Inter, Segoe UI, Arial, sans-serif" font-weight="500" text-anchor="middle" fill="#5d667a" >2021</text>
<line x1="1102.5" y1="380.0" x2="1102.5" y2="734.0" stroke="#dbe1ec" stroke-width="1" stroke-dasharray="4 8"/>
<text x="1102.5" y="764.0" font-size="13" font-family="Inter, Segoe UI, Arial, sans-serif" font-weight="500" text-anchor="middle" fill="#5d667a" >2022</text>
<line x1="1229.5" y1="380.0" x2="1229.5" y2="734.0" stroke="#dbe1ec" stroke-width="1" stroke-dasharray="4 8"/>
<text x="1229.5" y="764.0" font-size="13" font-family="Inter, Segoe UI, Arial, sans-serif" font-weight="500" text-anchor="middle" fill="#5d667a" >2023</text>
<polyline points="86.0,734.0 86.0,488.4 96.6,714.7 107.2,517.7 117.8,528.9 128.4,512.6 138.9,492.9 149.5,553.0 160.1,442.3 170.7,495.5 181.3,474.0 191.9,497.5 202.5,476.4 213.1,509.1 223.6,546.2 234.2,532.6 244.8,529.9 255.4,510.6 266.0,528.8 276.6,496.0 287.2,453.1 297.8,511.9 308.4,494.3 318.9,503.5 329.5,468.4 340.1,474.4 350.7,507.6 361.3,487.1 371.9,497.0 382.5,469.6 393.1,525.8 403.6,413.4 414.2,434.7 424.8,480.7 435.4,454.0 446.0,463.9 456.6,455.6 467.2,469.1 477.8,514.8 488.4,489.3 498.9,491.2 509.5,490.4 520.1,520.2 530.7,387.9 541.3,467.9 551.9,460.6 562.5,476.1 573.1,467.5 583.6,704.2 594.2,456.2 604.8,495.4 615.4,466.8 626.0,466.2 636.6,498.5 647.2,453.8 657.8,395.1 668.4,448.1 678.9,452.4 689.5,462.5 700.1,476.3 710.7,466.9 721.3,502.0 731.9,535.4 742.5,528.3 753.1,544.6 763.6,572.6 774.2,485.0 784.8,468.4 795.4,508.6 806.0,519.6 816.6,528.6 827.2,502.3 837.8,731.6 848.4,503.1 858.9,538.0 869.5,581.4 880.1,699.0 890.7,528.6 901.3,711.2 911.9,690.9 922.5,727.4 933.1,676.4 943.6,668.7 954.2,649.3 964.8,647.1 975.4,666.5 986.0,679.7 996.6,726.9 1007.2,655.8 1017.8,659.0 1028.4,610.8 1038.9,707.6 1049.5,699.4 1060.1,674.9 1070.7,652.0 1081.3,635.3 1091.9,625.8 1102.5,723.3 1113.1,656.1 1123.6,620.2 1134.2,627.8 1144.8,545.4 1155.4,575.7 1166.0,565.3 1176.6,592.7 1187.2,588.5 1197.8,576.7 1208.4,575.8 1218.9,559.1 1229.5,558.9 1240.1,575.6 1250.7,567.5 1261.3,575.4 1271.9,711.4 1282.5,715.1 1293.1,712.9 1303.6,552.0 1314.2,551.7 1324.8,538.5 1335.4,552.1 1346.0,540.3 1346.0,734.0" fill="url(#lineFill)" stroke="none" stroke-width="0" stroke-linejoin="round" stroke-linecap="round"/>
<polyline points="86.0,488.4 96.6,714.7 107.2,517.7 117.8,528.9 128.4,512.6 138.9,492.9 149.5,553.0 160.1,442.3 170.7,495.5 181.3,474.0 191.9,497.5 202.5,476.4 213.1,509.1 223.6,546.2 234.2,532.6 244.8,529.9 255.4,510.6 266.0,528.8 276.6,496.0 287.2,453.1 297.8,511.9 308.4,494.3 318.9,503.5 329.5,468.4 340.1,474.4 350.7,507.6 361.3,487.1 371.9,497.0 382.5,469.6 393.1,525.8 403.6,413.4 414.2,434.7 424.8,480.7 435.4,454.0 446.0,463.9 456.6,455.6 467.2,469.1 477.8,514.8 488.4,489.3 498.9,491.2 509.5,490.4 520.1,520.2 530.7,387.9 541.3,467.9 551.9,460.6 562.5,476.1 573.1,467.5 583.6,704.2 594.2,456.2 604.8,495.4 615.4,466.8 626.0,466.2 636.6,498.5 647.2,453.8 657.8,395.1 668.4,448.1 678.9,452.4 689.5,462.5 700.1,476.3 710.7,466.9 721.3,502.0 731.9,535.4 742.5,528.3 753.1,544.6 763.6,572.6 774.2,485.0 784.8,468.4 795.4,508.6 806.0,519.6 816.6,528.6 827.2,502.3 837.8,731.6 848.4,503.1 858.9,538.0 869.5,581.4 880.1,699.0 890.7,528.6 901.3,711.2 911.9,690.9 922.5,727.4 933.1,676.4 943.6,668.7 954.2,649.3 964.8,647.1 975.4,666.5 986.0,679.7 996.6,726.9 1007.2,655.8 1017.8,659.0 1028.4,610.8 1038.9,707.6 1049.5,699.4 1060.1,674.9 1070.7,652.0 1081.3,635.3 1091.9,625.8 1102.5,723.3 1113.1,656.1 1123.6,620.2 1134.2,627.8 1144.8,545.4 1155.4,575.7 1166.0,565.3 1176.6,592.7 1187.2,588.5 1197.8,576.7 1208.4,575.8 1218.9,559.1 1229.5,558.9 1240.1,575.6 1250.7,567.5 1261.3,575.4 1271.9,711.4 1282.5,715.1 1293.1,712.9 1303.6,552.0 1314.2,551.7 1324.8,538.5 1335.4,552.1 1346.0,540.3" fill="none" stroke="#1f7a8c" stroke-width="3.2" stroke-linejoin="round" stroke-linecap="round"/>
<circle cx="86.0" cy="488.4" r="4.5" fill="#1f7a8c" stroke="#ffffff" stroke-width="2"/>
<circle cx="340.1" cy="474.4" r="4.5" fill="#1f7a8c" stroke="#ffffff" stroke-width="2"/>
<circle cx="594.2" cy="456.2" r="4.5" fill="#1f7a8c" stroke="#ffffff" stroke-width="2"/>
<circle cx="848.4" cy="503.1" r="4.5" fill="#1f7a8c" stroke="#ffffff" stroke-width="2"/>
<circle cx="1102.5" cy="723.3" r="4.5" fill="#1f7a8c" stroke="#ffffff" stroke-width="2"/>
<circle cx="1346.0" cy="540.3" r="4.5" fill="#1f7a8c" stroke="#ffffff" stroke-width="2"/>
<rect x="986.0" y="386.0" width="300.0" height="108.0" rx="8" fill="#f7fbff" stroke="#d7e1f2"/>
<text x="1008.0" y="422.0" font-size="13" font-family="Inter, Segoe UI, Arial, sans-serif" font-weight="700" text-anchor="start" fill="#5d667a" >Last observed month</text>
<text x="1008.0" y="462.0" font-size="24" font-family="Inter, Segoe UI, Arial, sans-serif" font-weight="800" text-anchor="start" fill="#172033" >Dec 2023: 547.104</text>
<text x="86.0" y="792.0" font-size="17" font-family="Inter, Segoe UI, Arial, sans-serif" font-weight="800" text-anchor="start" fill="#172033" >Rata-rata kunjungan per tahun</text>
<rect x="86.0" y="822.8" width="116.6" height="51.2" rx="4" fill="#3366cc" stroke="none" opacity="0.85"/>
<text x="144.3" y="896.0" font-size="12" font-family="Inter, Segoe UI, Arial, sans-serif" font-weight="500" text-anchor="middle" fill="#5d667a" >2014</text>
<rect x="212.6" y="820.7" width="116.6" height="53.3" rx="4" fill="#3366cc" stroke="none" opacity="0.85"/>
<text x="270.9" y="896.0" font-size="12" font-family="Inter, Segoe UI, Arial, sans-serif" font-weight="500" text-anchor="middle" fill="#5d667a" >2015</text>
<rect x="339.2" y="812.5" width="116.6" height="61.5" rx="4" fill="#3366cc" stroke="none" opacity="0.85"/>
<text x="397.5" y="896.0" font-size="12" font-family="Inter, Segoe UI, Arial, sans-serif" font-weight="500" text-anchor="middle" fill="#5d667a" >2016</text>
<rect x="465.8" y="817.9" width="116.6" height="56.1" rx="4" fill="#3366cc" stroke="none" opacity="0.85"/>
<text x="524.1" y="896.0" font-size="12" font-family="Inter, Segoe UI, Arial, sans-serif" font-weight="500" text-anchor="middle" fill="#5d667a" >2017</text>
<rect x="592.4" y="810.0" width="116.6" height="64.0" rx="4" fill="#3366cc" stroke="none" opacity="0.85"/>
<text x="650.7" y="896.0" font-size="12" font-family="Inter, Segoe UI, Arial, sans-serif" font-weight="500" text-anchor="middle" fill="#5d667a" >2018</text>
<rect x="719.0" y="827.4" width="116.6" height="46.6" rx="4" fill="#3366cc" stroke="none" opacity="0.85"/>
<text x="777.3" y="896.0" font-size="12" font-family="Inter, Segoe UI, Arial, sans-serif" font-weight="500" text-anchor="middle" fill="#5d667a" >2019</text>
<rect x="845.6" y="850.8" width="116.6" height="23.2" rx="4" fill="#e15759" stroke="none" opacity="0.85"/>
<text x="903.9" y="896.0" font-size="12" font-family="Inter, Segoe UI, Arial, sans-serif" font-weight="500" text-anchor="middle" fill="#5d667a" >2020</text>
<rect x="972.2" y="858.1" width="116.6" height="15.9" rx="4" fill="#e15759" stroke="none" opacity="0.85"/>
<text x="1030.5" y="896.0" font-size="12" font-family="Inter, Segoe UI, Arial, sans-serif" font-weight="500" text-anchor="middle" fill="#5d667a" >2021</text>
<rect x="1098.8" y="842.7" width="116.6" height="31.3" rx="4" fill="#2e8b57" stroke="none" opacity="0.85"/>
<text x="1157.1" y="896.0" font-size="12" font-family="Inter, Segoe UI, Arial, sans-serif" font-weight="500" text-anchor="middle" fill="#5d667a" >2022</text>
<rect x="1225.4" y="841.6" width="116.6" height="32.4" rx="4" fill="#2e8b57" stroke="none" opacity="0.85"/>
<text x="1283.7" y="896.0" font-size="12" font-family="Inter, Segoe UI, Arial, sans-serif" font-weight="500" text-anchor="middle" fill="#5d667a" >2023</text>
</svg>