<svg xmlns="http://www.w3.org/2000/svg" viewBox="0 0 960 640" role="img" aria-label="Bank Jatim performance dashboard cover">
  <rect width="960" height="640" fill="#07100f"/>
  <rect x="84" y="86" width="792" height="468" rx="30" fill="#101c1a" stroke="#eef8f3" stroke-opacity=".12"/>
  <rect x="128" y="136" width="232" height="140" rx="22" fill="#172724" stroke="#8fe8c2" stroke-opacity=".22"/>
  <rect x="394" y="136" width="390" height="140" rx="22" fill="#172724" stroke="#8fe8c2" stroke-opacity=".22"/>
  <rect x="128" y="314" width="312" height="170" rx="22" fill="#172724" stroke="#8fe8c2" stroke-opacity=".22"/>
  <rect x="474" y="314" width="310" height="170" rx="22" fill="#172724" stroke="#8fe8c2" stroke-opacity=".22"/>
  <path d="M170 240h138M170 205h98M170 170h160" stroke="#8fe8c2" stroke-width="14" stroke-linecap="round"/>
  <path d="M432 238h270M432 204h226M432 170h300" stroke="#eef8f3" stroke-opacity=".17" stroke-width="13" stroke-linecap="round"/>
  <rect x="174" y="390" width="34" height="54" rx="10" fill="#f3c46f"/>
  <rect x="236" y="362" width="34" height="82" rx="10" fill="#8fe8c2"/>
  <rect x="298" y="334" width="34" height="110" rx="10" fill="#89a7ff"/>
  <path d="M518 430c44-80 88-6 132-66 31-42 60-24 94-10" fill="none" stroke="#8fe8c2" stroke-width="11" stroke-linecap="round"/>
  <text x="128" y="592" fill="#eef8f3" font-family="Inter, Arial, sans-serif" font-size="46" font-weight="800">IT-BSC Performance Dashboard</text>
</svg>
