<svg xmlns="http://www.w3.org/2000/svg" viewBox="0 0 960 640" role="img" aria-label="Scent2Me perfume recommendation platform cover">
  <rect width="960" height="640" fill="#07100f"/>
  <rect x="78" y="76" width="856" height="438" rx="30" fill="#101c1a" stroke="#eef8f3" stroke-opacity=".12"/>
  <rect x="126" y="120" width="306" height="300" rx="24" fill="#f7f4ed"/>
  <rect x="154" y="152" width="128" height="18" rx="9" fill="#9fbea0"/>
  <text x="154" y="238" fill="#3f3f46" font-family="Georgia, 'Times New Roman', serif" font-size="54" font-weight="700">Find Your</text>
  <text x="154" y="302" fill="#8daf8f" font-family="Georgia, 'Times New Roman', serif" font-size="60" font-weight="700">Scent</text>
  <rect x="154" y="342" width="118" height="42" rx="21" fill="#9fbea0"/>
  <rect x="292" y="342" width="86" height="42" rx="21" fill="#ffffff" stroke="#d8d4cc"/>
  <rect x="496" y="118" width="274" height="184" rx="24" fill="#f7f4ed"/>
  <rect x="542" y="150" width="94" height="112" rx="12" fill="#ffffff"/>
  <path d="M588 162c38 24 40 58 7 92-42-20-48-62-7-92z" fill="#f3a9b7"/>
  <rect x="568" y="202" width="60" height="48" rx="8" fill="#f3a9b7" stroke="#2d2d30" stroke-opacity=".22"/>
  <rect x="672" y="154" width="110" height="14" rx="7" fill="#3f3f46" fill-opacity=".72"/>
  <rect x="672" y="188" width="84" height="12" rx="6" fill="#9fbea0"/>
  <rect x="672" y="220" width="124" height="12" rx="6" fill="#3f3f46" fill-opacity=".16"/>
  <rect x="496" y="342" width="274" height="112" rx="24" fill="#101c1a" stroke="#9fbea0" stroke-opacity=".28"/>
  <circle cx="548" cy="398" r="25" fill="#9fbea0"/>
  <path d="M538 398h20M548 388v20" stroke="#07100f" stroke-width="7" stroke-linecap="round"/>
  <rect x="590" y="374" width="136" height="15" rx="8" fill="#eef8f3" fill-opacity=".88"/>
  <rect x="590" y="407" width="172" height="12" rx="6" fill="#eef8f3" fill-opacity=".18"/>
  <path d="M432 260h66M770 246h46M770 398h54" fill="none" stroke="#8fe8c2" stroke-width="10" stroke-linecap="round"/>
  <path d="M484 256l24 4-24 4M804 242l24 4-24 4M812 394l24 4-24 4" fill="none" stroke="#8fe8c2" stroke-width="8" stroke-linecap="round" stroke-linejoin="round"/>
  <rect x="126" y="462" width="690" height="20" rx="10" fill="#eef8f3" fill-opacity=".12"/>
  <rect x="126" y="462" width="286" height="20" rx="10" fill="#8fe8c2" fill-opacity=".72"/>
  <text x="92" y="584" fill="#eef8f3" font-family="Inter, Arial, sans-serif" font-size="43" font-weight="800">Scent2Me Recommendation Platform</text>
  <text x="92" y="618" fill="#a9bab4" font-family="Inter, Arial, sans-serif" font-size="23">FastAPI + TF-IDF + PostgreSQL + Railway</text>
</svg>
